PathFileType	4	(X/Y/Z)	s07c0303.trc
DataRate	CameraRate	NumFrames	NumMarkers	Units	OrigDataRate	OrigDataStartFrame	OrigNumFrames
200	200	4	48	mm	200	0	2000
Frame#	Time	racr			lacr			c7			jug			rlel			rdr			llel			ldr			s2			lic			ric			lasi			rasi			rpsi			lpsi			rgt			lgt			rth1			rth2			rth3			rth4			rlfc			rmfc			rsh1			rsh2			rsh3			rsh4			rlmal			rcal			rtoe			rmt5			lth1			lth2			lth4			lth3			llfc			lmfc			lsh1			lsh2			lsh3			lsh4			llmal			lcal			ltoe			lmt5			SBIKE			LBIKE			RBIKE			
		X1	Y1	Z1	X2	Y2	Z2	X3	Y3	Z3	X4	Y4	Z4	X5	Y5	Z5	X6	Y6	Z6	X7	Y7	Z7	X8	Y8	Z8	X9	Y9	Z9	X10	Y10	Z10	X11	Y11	Z11	X12	Y12	Z12	X13	Y13	Z13	X14	Y14	Z14	X15	Y15	Z15	X16	Y16	Z16	X17	Y17	Z17	X18	Y18	Z18	X19	Y19	Z19	X20	Y20	Z20	X21	Y21	Z21	X22	Y22	Z22	X23	Y23	Z23	X24	Y24	Z24	X25	Y25	Z25	X26	Y26	Z26	X27	Y27	Z27	X28	Y28	Z28	X29	Y29	Z29	X30	Y30	Z30	X31	Y31	Z31	X32	Y32	Z32	X33	Y33	Z33	X34	Y34	Z34	X35	Y35	Z35	X36	Y36	Z36	X37	Y37	Z37	X38	Y38	Z38	X39	Y39	Z39	X40	Y40	Z40	X41	Y41	Z41	X42	Y42	Z42	X43	Y43	Z43	X44	Y44	Z44	X45	Y45	Z45	X46	Y46	Z46	X47	Y47	Z47	X48	Y48	Z48	
0	0.0000	486.065521	1329.460003	-91.027069	463.035035	1321.251752	-386.659211	471.841946	1358.137513	-242.199709	406.873311	1229.017932	-236.628345	458.186980	1008.679252	35.130168	714.409417	914.520246	-68.018658	454.211254	1017.107585	-521.493221	715.516892	912.032292	-421.651891	-127.769739	1218.578558	-242.879516	45.233756	1236.020060	-383.678301	47.682853	1211.339456	-90.278924	57.728908	1150.032093	-360.316530	47.388749	1158.077921	-106.873367	-93.097380	1250.040276	-189.980223	-77.558249	1260.624112	-296.736558	-32.491231	1116.554751	-46.059749	-38.217348	1103.300652	-420.261480	102.025537	1036.609730	-48.108290	184.286896	1009.382999	-60.984078	244.223216	948.226971	-61.307967	200.926018	1038.795461	-76.676912	351.846333	857.782305	-96.101349	0.000000	0.000000	-0.000000	314.022399	718.157710	-71.066564	310.841450	630.397567	-90.228867	269.194095	554.471379	-84.561325	325.694955	630.271580	-127.278346	224.856935	425.040378	-85.922181	159.141602	381.882018	-112.861556	448.385091	370.132307	-129.349329	373.391762	333.602022	-57.659804	24.448566	1000.728470	-424.700019	99.925382	954.893123	-428.252194	126.322098	979.563179	-421.750564	143.350417	877.377571	-425.523401	252.098943	727.854887	-393.618838	241.771119	714.049144	-293.998383	148.257086	618.388800	-411.514415	101.251094	549.521114	-389.354491	23.213179	504.776931	-398.119949	104.400187	551.853121	-347.997624	-80.644226	418.623636	-395.210388	-161.961480	400.429631	-360.676735	111.654656	306.803670	-359.614391	27.035847	304.821803	-422.657948	-261.453316	961.973756	-237.313448	-82.562577	79.236006	-436.676012	-82.590999	78.845053	-39.011485	
1	0.0050	486.042987	1329.445246	-91.025683	463.586085	1321.510877	-387.095290	471.795967	1358.141786	-242.187215	406.852417	1229.064077	-236.628044	458.172860	1008.669999	35.169760	714.406692	914.543032	-67.998088	454.218287	1017.127618	-521.504182	715.504243	912.025159	-421.644906	-127.789123	1218.560875	-242.914931	45.193020	1236.011806	-383.735419	47.626894	1211.325620	-90.283164	57.701772	1150.040467	-360.346190	47.329576	1158.062997	-106.864154	-93.137012	1250.025889	-190.015597	-77.586931	1260.613023	-296.784070	-32.522318	1116.527926	-46.093710	-38.251206	1103.316750	-420.275329	101.983394	1036.573107	-48.133312	184.216611	1009.350527	-60.990397	244.153533	948.174561	-61.287497	200.867136	1038.729347	-76.672013	351.742220	857.695378	-96.077838	0.000000	0.000000	-0.000000	313.961965	718.065771	-71.056247	310.804681	630.327878	-90.196674	269.169049	554.396781	-84.550245	325.637531	630.183443	-127.278510	224.855036	424.940515	-85.913879	159.139476	381.750747	-112.853787	448.377089	370.036473	-129.340978	373.396818	333.515541	-57.665444	24.429012	1000.731081	-424.719944	99.912311	954.905733	-428.273235	126.324353	979.586624	-421.786878	143.350408	877.395953	-425.553281	252.139652	727.926090	-393.627599	241.849793	714.110912	-294.016836	148.281716	618.467725	-411.520007	101.298798	549.642742	-389.331352	23.212737	504.909733	-398.185930	104.441498	551.921295	-348.010210	-80.641488	418.716755	-395.193921	-161.952345	400.560287	-360.688088	111.642704	306.908102	-359.620514	27.008468	304.953310	-422.657228	-261.455498	961.974605	-237.320260	-82.583500	79.241549	-436.677111	-82.568117	78.816316	-39.047560	
2	0.0100	486.029021	1329.425770	-91.032459	463.539716	1321.506160	-387.078428	471.741652	1358.163340	-242.192556	406.797781	1229.039083	-236.612638	458.156419	1008.661813	35.193705	714.398369	914.537037	-67.999378	454.241191	1017.159038	-521.505555	715.502239	912.021411	-421.659764	-127.835936	1218.546321	-242.930060	45.161765	1236.020067	-383.764249	47.586184	1211.316310	-90.298853	57.660442	1150.050348	-360.359281	47.298236	1158.043202	-106.890845	-93.177097	1250.017282	-190.034232	-77.631379	1260.614180	-296.790585	-32.592392	1116.513861	-46.121145	-38.288094	1103.304992	-420.304117	101.919691	1036.505871	-48.130738	184.153192	1009.300885	-60.980156	244.071116	948.096816	-61.279843	200.796635	1038.667878	-76.666527	351.678264	857.603401	-96.052833	0.000000	0.000000	-0.000000	313.902967	717.979150	-71.026486	310.766573	630.232588	-90.179506	269.139894	554.302921	-84.530462	325.591485	630.099592	-127.240277	224.869697	424.848885	-85.909329	159.146161	381.632458	-112.829329	448.390556	369.948001	-129.331877	373.413702	333.410628	-57.683350	24.409111	1000.718722	-424.716792	99.909490	954.917136	-428.280476	126.301042	979.600818	-421.820532	143.356245	877.401846	-425.549921	252.183710	727.984883	-393.644530	241.885652	714.183425	-294.004136	148.317813	618.549395	-411.500961	101.302738	549.725800	-389.332417	23.223002	504.995119	-398.186141	104.454887	552.001484	-347.999034	-80.645464	418.824740	-395.186317	-161.958562	400.672449	-360.696331	111.641381	307.009070	-359.625122	27.002665	305.083943	-422.670910	-261.450719	961.981535	-237.323089	-82.567777	79.217057	-436.681879	-82.628007	79.094042	-38.844927	
3	0.0150	485.923022	1329.841581	-90.743920	462.936114	1321.290496	-386.617319	471.695201	1358.175032	-242.182936	406.743086	1229.045011	-236.630363	458.163284	1008.647187	35.189804	714.390419	914.543207	-67.992645	456.566095	1016.111003	-518.332677	715.476065	912.021548	-421.670616	-127.866859	1218.529138	-242.964215	44.270875	1235.723326	-381.647692	47.532954	1211.398875	-90.442668	57.611108	1150.060102	-360.409940	47.229501	1158.019383	-106.892389	-93.514084	1249.833705	-189.983087	-77.582895	1260.535427	-296.705748	-32.640247	1116.475710	-46.152510	-37.972602	1103.753792	-420.828983	101.961357	1036.102931	-48.846806	184.071483	1009.238114	-60.982863	243.990599	947.999630	-61.256930	200.731192	1038.495979	-76.805045	351.580033	857.503944	-96.006421	0.000000	0.000000	-0.000000	313.832930	717.768220	-70.963912	311.182111	630.079533	-89.948503	269.175494	554.104962	-84.545078	325.565251	629.909961	-127.332568	224.440276	425.336613	-85.452051	159.173378	381.514478	-112.850882	448.357811	369.743559	-129.434373	373.429325	333.301994	-57.666984	24.402377	1000.722362	-424.749992	99.895732	954.917187	-428.306265	126.282594	979.571727	-421.818245	143.362844	877.410077	-425.563140	252.260114	727.896142	-393.687406	241.948075	714.243334	-294.006962	148.344768	618.631056	-411.501367	101.452748	549.414751	-389.556448	23.231748	505.100845	-398.181706	104.872691	551.880725	-347.909431	-80.706508	419.157737	-395.555436	-161.980913	400.796309	-360.694363	111.616307	307.126270	-359.633148	26.989604	305.189059	-422.660234	-261.577709	962.035065	-237.854761	-82.580375	79.215311	-436.679496	-82.571450	78.841379	-39.036618	
